# xmcd CD database file
#
# Track frame offsets:
#	150
#	6051
#	17465
#	30836
#	41852
#	49634
#	69664
#	77826
#	88639
#	106140
#	112542
#	129951
#	146820
#	164077
#	181964
#	200712
#	220603
#	240614
#	265033
#	281757
#
# Disc length: 4049 seconds
#
# Revision: 0
# Processed by: cddbd v1.5.2PL0 Copyright (c) Steve Scherf et al.
# Submitted via: CDex 1.51
#
DISCID=090fcf14
DTITLE=Sissel - De Beste 1986 - 2006 CD2
DYEAR=2006
DGENRE=New Age
TTITLE0=Barndomshjemmet
TTITLE1=Ung Aslaug
TTITLE2=Sukiyaki
TTITLE3=En Dejlig Dag
TTITLE4=Nar Rosene Blomstrer I Mormors Hage
TTITLE5=If You Love Me
TTITLE6=Syng Kun I Din Ungdoms Var
TTITLE7=Vilja Sangen
TTITLE8=You Don't Bring Me Flowers
TTITLE9=Bergensiana
TTITLE10=Varvise (Med Sebastien)
TTITLE11=What Are We Made Of (Med Brian May)
TTITLE12=Prince Igor (Warren G)
TTITLE13=Mitt Hjerte Alltid Vanker (Med The Chieftains)
TTITLE14=Ga Inte Forbi (Med Peter Joback)
TTITLE15=Where The Lost Ones Go (Med Espen Lind)
TTITLE16=Elia Rising (Med Sort Sol)
TTITLE17=Ave Maria (Med Bryn Terfel)
TTITLE18=Bist Du Bei Mir (Med Placido Domingo)
TTITLE19=My Tribute (Med Oslo Gospel Choir)
EXTD=YEAR: 2006
EXTT0=
EXTT1=
EXTT2=
EXTT3=
EXTT4=
EXTT5=
EXTT6=
EXTT7=
EXTT8=
EXTT9=
EXTT10=
EXTT11=
EXTT12=
EXTT13=
EXTT14=
EXTT15=
EXTT16=
EXTT17=
EXTT18=
EXTT19=
PLAYORDER=
